<?xml version="1.0" encoding="UTF-8"?>
<svg id="Layer_2" data-name="Layer 2" xmlns="http://www.w3.org/2000/svg" viewBox="0 0 1722.18 248.41">
  <defs>
    <style>
      .cls-1 {
        fill: #fff;
      }

      .cls-2 {
        fill: #4169e1;
      }

      .cls-2, .cls-3 {
        stroke: #fff;
        stroke-miterlimit: 10;
        stroke-width: 6px;
      }

      .cls-3 {
        fill: #32cd32;
      }
    </style>
  </defs>
  <g id="Layer_3" data-name="Layer 3">
    <g>
      <g>
        <path class="cls-2" d="M1670.02,147.86l-35.66-61.76c-2.78-4.82,.7-10.84,6.26-10.84h4.34c3.99,0,7.23-3.24,7.23-7.23V10.23c0-3.99,3.24-7.23,7.23-7.23h33.72c3.99,0,7.23,3.24,7.23,7.23v57.81c0,3.99,3.24,7.23,7.23,7.23h4.34c5.56,0,9.04,6.02,6.26,10.84l-35.66,61.76c-2.78,4.82-9.74,4.82-12.52,0Z"/>
        <circle class="cls-2" cx="1676.28" cy="206.48" r="38.93"/>
      </g>
      <g>
        <path class="cls-3" d="M1465.37,145.36c0,18.25-2.18,30.71-6.55,37.37-8.02,12.17-28.03,18.25-60.03,18.25-14.46,0-25.59-1.11-33.4-3.33-12.46-3.58-20.55-10.42-24.27-20.51-1.86-4.94-2.79-13.74-2.79-26.42,0-2.94,.11-7.3,.32-13.1,.21-5.8,.32-10.13,.32-12.99,0-8.3-.39-20.76-1.18-37.37-.79-16.61-1.18-29.03-1.18-37.26,0-1.72,.75-2.58,2.25-2.58,4.37,0,10.97,.18,19.81,.54s15.44,.54,19.81,.54c1.79,0,2.68,.79,2.68,2.36,0,9.45-.3,23.61-.91,42.47s-.91,33.02-.91,42.47c0,11.24,1.18,18.83,3.54,22.76,3.15,5.37,9.74,8.05,19.76,8.05,14.68,0,22.01-7.12,22.01-21.37,0-10.38-.25-25.95-.75-46.71-.5-20.76-.75-36.33-.75-46.71,0-2.22,.89-3.33,2.68-3.33,4.22,0,10.59-.18,19.11-.54s14.89-.54,19.11-.54c2.08,0,3.11,.86,3.11,2.58,0,8.23-.34,20.65-1.02,37.26-.68,16.61-1.02,29.06-1.02,37.37,0,2.29,.04,5.74,.11,10.36,.07,4.62,.11,8.07,.11,10.36Z"/>
        <path class="cls-3" d="M1614.99,104.88c0,17.32-4.55,31.35-13.64,42.09-9.74,11.38-23.16,17.07-40.27,17.07-2.86,0-7.18-.16-12.94-.48-5.76-.32-10.08-.48-12.94-.48-3.08,0-4.62,1.32-4.62,3.97,0,3.29,.32,8.2,.97,14.71,.64,6.51,.97,11.38,.97,14.6,0,1.65-.75,2.47-2.25,2.47-4.37,0-10.92-.13-19.65-.38-8.73-.25-15.28-.38-19.65-.38-2.08,0-3.11-1.04-3.11-3.11,0-7.95,.13-19.88,.38-35.81s.38-27.87,.38-35.81c0-22.48-.97-46.1-2.9-70.87l-.11-1.5c-.14-1.36,.93-2.18,3.22-2.47,5.58-.72,17.9-1.07,36.94-1.07,11.24,0,22.01,.14,32.32,.43,16.97,.5,30.64,5.83,41.02,16,10.59,10.45,15.89,24.12,15.89,41.02Zm-42.84,1.72c0-16.68-8.13-25.02-24.38-25.02-11.45,0-17.47,.64-18.04,1.93-.5,.93-.75,9.2-.75,24.8,0,2.22,.09,5.49,.27,9.83,.18,4.33,.27,7.61,.27,9.83,0,1.43,6.44,2.15,19.33,2.15,15.53,0,23.3-7.84,23.3-23.52Z"/>
      </g>
    </g>
    <g>
      <g>
        <path d="M97.81,192.9c-5.86,0-13.67-.14-23.2-.41l-23.31-.52-31.22-.42c-.5,.01-1.03,.02-1.6,.02-2.87,0-6.7-.14-11.38-.42-.19-.04-.31-.08-.38-.11,0-.03,0-.07,0-.13,0-7.52,.12-18.93,.36-33.9,.24-15.06,.36-26.5,.36-33.99,0-7.99-.25-20.17-.73-36.22-.47-15.44-.71-27.32-.72-35.32,.04,0,.08,0,.12,0,2.04,0,5.12,.1,9.15,.31,4.22,.21,7.28,.32,9.35,.32,2.35,0,5.83-.12,10.35-.37,3.46-.19,6.27-.3,8.39-.34v.08c-.84,13.04-1.78,32.82-2.82,58.85l-.11,27.56c0,8.86,.04,15.42,.11,19.5v.19s.22,2.5,.22,2.5c.18,2.17,1.64,3.75,3.92,4.24l.31,.07h3.02c6.26,0,15.74-.33,28.18-.99,12.21-.65,21.51-.98,27.66-.99-.03,11.37-.88,21.26-2.54,29.47-.1,.51-.21,.8-.28,.95-.41,.03-1.31,.07-3.22,.07Z"/>
        <path class="cls-1" d="M40.17,54.49c-.78,12.96-1.66,31.67-2.62,55.71v.11s0,.11,0,.11l-.1,27.47c0,8.87,.04,15.45,.11,19.54v.19s.02,.19,.02,.19l.21,2.49c.28,3.46,2.75,6.18,6.28,6.94l.62,.13h3.34c6.32,0,15.85-.33,28.34-1,10.29-.54,18.5-.86,24.48-.95-.15,9.24-.88,17.44-2.18,24.46-.25,0-.53,0-.83,0-5.84,0-13.62-.14-23.15-.41l-2.25-.05-21.04-.47h-.03s-.03,0-.03,0l-31.08-.42h-.11s-.11,0-.11,0c-.48,.01-.98,.02-1.53,.02-2.3,0-5.24-.09-8.76-.28,.02-7.45,.14-17.93,.36-31.23,.24-15.06,.37-26.51,.37-34.04,0-8.02-.25-20.23-.73-36.31-.41-13.55-.65-24.35-.71-32.18,1.68,.05,3.72,.13,6.1,.25,4.27,.22,7.38,.32,9.5,.32,2.42,0,5.86-.12,10.51-.37,1.88-.1,3.56-.18,5.03-.24m4.83-6.12c-2.29,0-5.68,.12-10.19,.37-4.5,.24-7.9,.36-10.19,.36-2.01,0-5.08-.1-9.2-.31-4.12-.21-7.23-.31-9.3-.31s-3.12,.76-3.12,2.29c0,8.04,.24,20.08,.73,36.13,.48,16.05,.73,28.09,.73,36.13,0,7.56-.12,18.87-.37,33.94-.24,15.08-.36,26.39-.36,33.95,0,1.8,1,2.88,3.02,3.22,4.86,.29,8.78,.43,11.75,.43,.59,0,1.14,0,1.66-.02l31.08,.42c3.05,.07,10.81,.24,23.29,.52,9.56,.28,17.33,.42,23.29,.42,2.5,0,3.91-.07,4.26-.21,1.11-.35,1.83-1.42,2.18-3.22,1.73-8.59,2.6-18.82,2.6-30.67,0-1.59-.94-2.39-2.81-2.39-6.24,0-15.58,.33-28.02,.99-12.44,.66-21.78,.99-28.02,.99h-2.7c-.97-.21-1.49-.73-1.56-1.56-.07-.83-.14-1.66-.21-2.49-.07-4.09-.1-10.57-.1-19.44l.1-27.45c1.04-26.13,1.98-45.71,2.81-58.74l.1-1.35c.07-1.32-.42-1.98-1.46-1.98h0Z"/>
      </g>
      <g>
        <path d="M233.9,191.97c-12.04,0-16.74-.42-18.56-.78-.77-.16-1.67-.5-2.13-2.42-3.56-15.07-5.29-17.06-7.03-17.97l-.1-.05-.1-.04c-.95-.41-2.24-.98-29.06-.98-18.75,0-19.66,.75-20.72,1.61l-.08,.07-.08,.07c-1.2,1.13-2.71,3.52-4.82,12.63-1.29,5.61-2.47,6.92-2.73,7.15-1.31,.27-6.13,.71-22.83,.71-7.91,0-11.26-.59-12.62-.99,1.15-3.99,5.97-18.17,23.02-64.42,17.16-46.44,26.22-71.27,27.7-75.92,.31-.99,.58-1.55,.75-1.85,1.77,.04,4.36,.21,7.72,.5,3.97,.35,7.01,.53,9.05,.53s4.72-.12,8.46-.37c3.41-.23,6.01-.35,7.76-.36,.17,.14,.58,.58,1.14,1.74,3.33,7.14,13.31,32.26,29.63,74.62,19,49.43,23.58,62.61,24.41,65.7-.08,.03-.17,.06-.28,.09-.99,.26-4.76,.72-18.53,.72Zm-54.48-96.43c-1.52,3.18-3.98,9.78-7.51,20.18-5.09,14.7-5.77,18.35-5.77,19.99,0,4.78,6.64,5,9.14,5.08,2.12,.14,5.66,.21,10.7,.21,4.58,0,9.01-.42,10.34-3.46l.04-.09c.28-.71,.42-1.55,.42-2.56,0-1.8-.56-5.69-4.92-19.8-3.2-10.25-5.51-16.67-7.07-19.64l-2.78-5.31-2.58,5.41Z"/>
        <path class="cls-1" d="M166.53,51.87c1.48,.08,3.3,.22,5.45,.41,4.11,.36,7.16,.54,9.31,.54,2.03,0,4.87-.12,8.67-.38,2.43-.16,4.43-.27,5.99-.32,3.35,7.2,13.29,32.23,29.54,74.4,15.21,39.56,21.1,55.71,23.27,62.12-2.48,.16-6.93,.32-14.87,.32-11.68,0-16.07-.4-17.7-.67-.02-.06-.04-.13-.06-.22-3.56-15.08-5.52-18.34-8.55-19.94l-.19-.1-.2-.09c-1.57-.69-2.81-1.23-30.26-1.23-19.02,0-20.68,.7-22.62,2.29l-.16,.13-.15,.14c-1.86,1.75-3.53,4.82-5.69,14.15-.63,2.76-1.2,4.26-1.56,5.03-2.16,.21-7.59,.5-21.08,.5-4.14,0-6.9-.16-8.73-.35,2.18-6.65,7.86-22.78,21.95-61.02,16.8-45.47,25.85-70.27,27.64-75.73m8.54,91.91c2.29,.14,5.85,.21,10.9,.21,3.77,0,10.78,0,13.09-5.26l.04-.09,.04-.09c.43-1.07,.64-2.28,.64-3.68,0-2.14-.6-6.27-5.06-20.71-4.33-13.88-6.23-18.14-7.28-20.13l-5.57-10.61-5.16,10.81c-1.57,3.3-4.07,10-7.64,20.48-5.49,15.84-5.94,19.14-5.94,20.99,0,1.23,.41,5.4,5.66,7.15,1.61,.54,3.61,.83,6.28,.93m-11.25-98c-1.11,0-2.08,1.32-2.91,3.95-1.46,4.57-10.67,29.84-27.65,75.79-15.66,42.49-23.5,64.63-23.5,66.43,0,2.01,5.3,3.01,15.91,3.01,13.45,0,21.35-.28,23.7-.83,1.87-.48,3.46-3.6,4.78-9.36,1.46-6.31,2.77-10.01,3.95-11.12,.76-.62,7.03-.94,18.82-.94,17.47,0,26.75,.24,27.86,.73,1.32,.69,3.15,6.03,5.51,16.01,.62,2.64,2.11,4.19,4.47,4.68,2.84,.55,9.22,.83,19.13,.83,10.81,0,17.26-.28,19.34-.83,1.73-.48,2.6-1.35,2.6-2.6,0-1.87-8.25-24.26-24.74-67.16-16.43-42.62-26.34-67.58-29.73-74.85-1.11-2.29-2.32-3.43-3.64-3.43-1.8,0-4.52,.12-8.16,.36-3.64,.24-6.39,.36-8.27,.36s-4.87-.17-8.78-.52c-3.92-.35-6.81-.52-8.68-.52h0Zm22.14,92.22c-4.92,0-8.46-.07-10.6-.21-4.16-.14-6.24-.83-6.24-2.08,0-1.87,1.87-8.21,5.61-19.03,3.47-10.19,5.93-16.81,7.38-19.86,1.46,2.77,3.74,9.15,6.86,19.13,3.19,10.33,4.78,16.63,4.78,18.92,0,.62-.07,1.11-.21,1.46-.49,1.11-3.01,1.66-7.59,1.66h0Z"/>
      </g>
      <g>
        <path d="M329.55,192.38c-1.66,0-4.09-.03-7.42-.1h-7.44c-31.45,0-41.83-.81-45.01-1.49-.36-.07-.55-.15-.64-.2,0-.02,0-.05,0-.09,0-7.35,.44-18.63,1.29-33.51,.87-15.06,1.31-26.49,1.31-33.96,0-8.04-.42-23.33-1.25-45.44-.21-5.64-.58-14.02-1.15-25.61l-.04-.63c.16-.03,.35-.07,.59-.1,1.46-.18,6.76-.39,23.7-.39,21.97,0,34.98,.07,38.67,.21,16.45,.6,28.67,3.25,36.29,7.88,9.87,6.05,14.67,16.13,14.67,30.81,0,3.56-1.14,7.45-3.38,11.56-1.68,3.03-3.93,6.14-6.67,9.21-2.31,2.56-3.31,4.98-2.96,7.19,.24,1.54,1.15,2.84,2.55,3.65,4.29,2.45,7.72,6.44,10.21,11.86,2.3,4.99,3.47,10.37,3.47,16,0,11.9-3.75,21.87-11.13,29.64-8.46,8.97-23.81,13.52-45.65,13.52Zm-5.82-61.34c-14.52,0-15.49,.83-16.51,1.71-1.32,1.14-2.19,2.8-2.19,15.01s1.03,14.54,2.27,15.73c1.25,1.21,3.31,2.14,17.05,2.14,7.93,0,13.45-.64,16.88-1.97,6.23-2.47,9.51-7.61,9.51-14.86s-3.33-12.76-9.62-15.44c-3.76-1.56-9.44-2.32-17.4-2.32Zm-16.48-26.11c1.16,.91,3.11,1.55,15.02,1.55s25.35-2.74,25.35-15.79c0-7.27-3.81-12.36-11.01-14.7-3.68-1.15-9.35-1.71-17.35-1.71s-14.23,.33-14.23,4.66c0,1.22-.12,3.14-.35,5.71-.25,2.79-.38,4.83-.38,6.25,0,9.79,1.12,12.68,2.95,14.03Z"/>
        <path class="cls-1" d="M293.47,53.86c21.92,0,34.89,.07,38.56,.2,15.94,.58,27.66,3.09,34.82,7.44,8.92,5.47,13.25,14.71,13.25,28.26,0,3.05-1.01,6.46-2.99,10.09-1.58,2.85-3.7,5.77-6.27,8.66-2.95,3.27-4.2,6.53-3.7,9.68,.39,2.46,1.81,4.51,4.04,5.79,3.77,2.16,6.71,5.59,8.97,10.51,2.12,4.59,3.19,9.55,3.19,14.74,0,11.26-3.37,20.28-10.32,27.59-7.86,8.34-22.48,12.57-43.46,12.57-1.64,0-4.04-.03-7.36-.1h-.06s-.06,0-.06,0h-7.38c-26.75,0-38.03-.57-42.64-1.15,.08-7.26,.51-17.66,1.28-30.97,.87-15.11,1.31-26.59,1.31-34.13,0-8.08-.42-23.41-1.25-45.55-.19-5.32-.53-12.98-1.04-23.39,2.83-.12,8.77-.23,21.14-.23m11.94,53.45c1.92,1.51,4.32,2.17,16.85,2.17,8.59,0,15.05-1.3,19.74-3.99,5.63-3.22,8.61-8.34,8.61-14.8,0-8.57-4.65-14.81-13.08-17.56h-.03s-.03-.02-.03-.02c-3.95-1.23-9.9-1.83-18.22-1.83-4.07,0-7.12,.16-9.3,.48-6.9,1.02-7.93,4.94-7.93,7.18,0,.78-.06,2.36-.34,5.43-.26,2.87-.39,5-.39,6.52,0,9.9,1.04,14.1,4.12,16.41m18.93,61.33c8.42,0,14.13-.69,17.97-2.17h.03s.03-.02,.03-.02c7.34-2.91,11.38-9.18,11.38-17.64s-4.06-15.05-11.44-18.2h-.02s-.02-.02-.02-.02c-4.1-1.71-10.16-2.54-18.53-2.54-14.23,0-16.46,.71-18.48,2.45-2.42,2.09-3.22,4.88-3.22,17.27s.99,15.78,3.19,17.89c2.18,2.1,5.32,2.98,19.14,2.98m-30.88-120.78c-13.79,0-21.82,.14-24.07,.42-2.25,.28-3.34,1.07-3.27,2.39l.1,1.46c.55,11.37,.94,19.89,1.14,25.57,.83,22.18,1.25,37.29,1.25,45.33,0,7.49-.43,18.75-1.3,33.79-.87,15.04-1.3,26.27-1.3,33.68,0,1.73,1,2.81,3.02,3.22,4.85,1.04,20.06,1.56,45.64,1.56h7.38c3.26,.07,5.75,.1,7.48,.1,22.8,0,38.74-4.82,47.82-14.45,7.97-8.38,11.96-18.96,11.96-31.71,0-6.1-1.25-11.85-3.74-17.26-2.77-6.03-6.59-10.43-11.44-13.2-1.8-1.04-1.42-3.4,1.14-6.24,2.91-3.26,5.27-6.51,7.07-9.77,2.49-4.57,3.74-8.91,3.74-13,0-15.66-5.37-26.79-16.11-33.37-8.11-4.92-20.69-7.69-37.74-8.32-3.74-.14-16.67-.21-38.78-.21h0Zm28.8,55.62c-8.04,0-12.44-.31-13.2-.94-1.18-.83-1.77-4.71-1.77-11.64,0-1.32,.12-3.31,.36-5.98,.24-2.67,.36-4.66,.36-5.98,0-1.11,3.74-1.66,11.23-1.66s13.1,.52,16.43,1.56c5.96,1.94,8.94,5.89,8.94,11.85,0,8.52-7.45,12.79-22.35,12.79h0Zm2.08,59.16c-9.08,0-14.07-.43-14.97-1.3-.9-.87-1.35-5.39-1.35-13.57s.38-12.08,1.14-12.74c.76-.66,5.61-.99,14.55-.99,7.48,0,12.89,.69,16.22,2.08,5.2,2.22,7.8,6.45,7.8,12.68s-2.53,10.05-7.59,12.06c-3.05,1.18-8.32,1.77-15.8,1.77h0Z"/>
      </g>
      <g>
        <path d="M472.81,194.98c-20.46,0-37.67-7.24-51.15-21.52-13.25-13.98-19.97-31.51-19.97-52.11s6.72-38.26,19.98-52.31c13.49-14.35,30.7-21.62,51.15-21.62s37.49,7.27,51.05,21.62c13.32,14.18,20.08,31.78,20.08,52.31s-6.69,38.33-19.87,52.31c-13.41,14.14-30.66,21.31-51.26,21.31Zm0-114.78c-10.64,0-19.77,4.34-27.12,12.9-7.03,8.14-10.6,17.65-10.6,28.26,0,11.3,3.36,20.88,9.99,28.48,7.08,8.07,16.41,12.15,27.73,12.15,10.63,0,19.78-4.3,27.21-12.77,6.98-8.02,10.51-17.46,10.51-28.07s-3.43-20.67-10.19-28.47c-7.15-8.28-16.41-12.47-27.53-12.47Z"/>
        <path class="cls-1" d="M472.81,50.43c19.73,0,35.72,6.76,48.86,20.67,12.97,13.81,19.27,30.25,19.27,50.26s-6.23,36.66-19.04,50.24c-13.01,13.71-29.06,20.38-49.09,20.38s-35.89-6.73-48.98-20.58c-12.88-13.59-19.15-29.96-19.15-50.04s6.27-36.59,19.16-50.26c13.08-13.91,29.09-20.67,48.96-20.67m0,114.57c11.53,0,21.45-4.64,29.48-13.81,7.46-8.58,11.25-18.68,11.25-30.03s-3.68-22.07-10.92-30.43c-7.75-8.97-17.77-13.52-29.8-13.52s-21.45,4.69-29.39,13.93c-7.52,8.71-11.34,18.88-11.34,30.22,0,12.05,3.61,22.3,10.74,30.47,7.67,8.74,17.76,13.17,29.98,13.17m0-120.57c-21.42,0-39.19,7.52-53.33,22.56-13.86,14.69-20.79,32.82-20.79,54.37s6.93,39.54,20.79,54.17c14.14,14.97,31.92,22.46,53.33,22.46s39.37-7.41,53.44-22.25c13.79-14.62,20.69-32.75,20.69-54.37s-6.97-39.54-20.9-54.37c-14.21-15.04-31.95-22.56-53.23-22.56h0Zm0,114.57c-10.47,0-18.96-3.71-25.47-11.12-6.17-7.07-9.25-15.91-9.25-26.51,0-9.91,3.29-18.68,9.88-26.3,6.79-7.9,15.07-11.85,24.85-11.85,10.26,0,18.68,3.81,25.26,11.44,6.31,7.28,9.46,16.11,9.46,26.51s-3.26,18.61-9.77,26.1c-6.86,7.83-15.18,11.75-24.95,11.75h0Z"/>
      </g>
      <g>
        <path d="M603.28,192.37h0Zm61.14-.61c-8.91,0-15.01-.2-18.13-.6-.65-.09-1.08-.16-1.37-.21-.08-.14-.18-.33-.31-.6-1.04-2.7-2.55-6.67-4.53-11.93-2.71-6.95-6.99-17.29-12.73-30.79-2.54-5.5-16.3-6.09-22.1-6.09-4.56,0-4.56,6.03-4.56,8.3,0,4.79,.44,11.99,1.31,21.38,.81,8.71,1.24,15.45,1.28,20.05l-1.06,.08c-4.01,.27-10.38,.41-18.92,.41-12.67,0-16.26-.35-17.27-.56-.34-.07-.53-.15-.62-.2,0-.02,0-.05,0-.09,0-7.53,.37-19.1,1.09-34.38,.73-15.39,1.09-27.08,1.09-34.76,0-29.24-.67-52.41-1.99-68.86l-.03-.48c.19-.06,.44-.12,.76-.18,1.43-.26,8.02-.69,31.28-1.2,12.78-.28,23.08-.42,30.6-.42,15.09,0,27.51,3.41,36.93,10.15,10.56,7.52,15.69,18.11,15.69,32.39,0,9.62-1.37,17.33-4.07,22.92-2.68,5.55-7.79,11.08-15.17,16.45-1.82,1.26-4.94,3.43,9.35,32.95,7.75,16.01,10.69,22.87,11.78,25.8-2.37,.23-7.45,.46-18.33,.46Zm-50.21-116.23c-5.74,0-12.45,.61-13.44,5.41-.3,1.71-.69,5.65-.69,20.98,0,1.65,.04,4.05,.1,7.14,.07,3.18,.1,5.44,.1,6.9,0,3.09,3.53,3.64,5.87,4,4.37,.65,9,.97,13.77,.97,21.3,0,25.77-11.47,25.77-21.09s-3.3-16.33-9.8-20.16c-4.82-2.8-11.91-4.16-21.69-4.16Z"/>
        <path class="cls-1" d="M628.24,53.65c14.45,0,26.29,3.23,35.19,9.6,9.71,6.91,14.43,16.7,14.43,29.94,0,9.16-1.27,16.43-3.77,21.61-2.46,5.09-7.23,10.24-14.19,15.29-4.11,2.89-5.86,7.31,8.37,36.71,5.45,11.27,8.47,17.88,10.13,21.75-2.89,.11-7.29,.2-13.98,.2-10.37,0-15.18-.28-17.4-.53-1.03-2.68-2.41-6.33-4.12-10.86v-.03s-.03-.03-.03-.03c-2.71-6.95-7-17.33-12.75-30.84l-.04-.08-.04-.08c-1.94-4.21-7.16-5.73-10.92-6.51-3.88-.8-8.8-1.24-13.87-1.24-2.55,0-5.71,1.48-6.93,5.63-.43,1.47-.63,3.27-.63,5.67,0,4.89,.45,12.18,1.33,21.66,.65,6.98,1.05,12.66,1.2,16.96-3.96,.2-9.63,.3-16.9,.3-8.61,0-12.83-.16-14.89-.31,.07-7.44,.43-18.11,1.07-31.77,.73-15.43,1.1-27.17,1.1-34.9,0-27.96-.61-50.4-1.81-66.75,3.07-.22,10.58-.56,28.9-.96,12.76-.28,23.04-.41,30.54-.41m-8.32,70.28c25.03,0,28.77-15.09,28.77-24.09,0-13.32-6.13-19.72-11.31-22.76-5.28-3.06-12.86-4.55-23.18-4.55-4.42,0-14.76,0-16.38,7.8l-.02,.09-.02,.09c-.33,1.89-.72,6.03-.72,21.42,0,1.67,.04,4.09,.1,7.2,.07,3.16,.1,5.4,.1,6.83,0,1.1,.36,4.79,5.04,6.25,.86,.27,1.93,.5,3.41,.73,4.5,.66,9.27,1,14.18,1m8.32-76.28c-7.62,0-17.85,.14-30.67,.42-18.92,.42-29.51,.83-31.76,1.25-2.25,.42-3.34,1.21-3.27,2.39l.1,1.46c1.32,16.43,1.98,39.3,1.98,68.62,0,7.69-.36,19.23-1.09,34.62-.73,15.39-1.09,26.89-1.09,34.52,0,1.73,1,2.81,3.02,3.22,2.01,.42,7.97,.62,17.88,.62,8.66,0,15.04-.14,19.13-.42,.97-.07,1.94-.14,2.91-.21,.62-.21,.94-.9,.94-2.08,0-4.71-.43-11.75-1.3-21.1-.87-9.36-1.3-16.39-1.3-21.1,0-3.54,.52-5.3,1.56-5.3,9.22,0,18.09,1.56,19.34,4.26,5.75,13.52,9.98,23.74,12.68,30.67,2.01,5.34,3.54,9.36,4.57,12.06,.55,1.18,1.04,1.87,1.46,2.08,.21,.14,1.07,.31,2.6,.52,3.26,.42,9.42,.62,18.51,.62,10.6,0,17.22-.21,19.86-.62,1.39-.21,2.08-.55,2.08-1.04,0-1.8-4.23-11.44-12.68-28.9-8.46-17.47-11.89-28.1-10.29-29.21,7.83-5.68,13.2-11.54,16.11-17.57,2.91-6.03,4.37-14.1,4.37-24.22,0-15.18-5.65-26.79-16.95-34.83-9.98-7.14-22.87-10.71-38.67-10.71h0Zm-8.32,70.28c-4.64,0-9.08-.31-13.31-.94-2.22-.34-3.33-.69-3.33-1.04,0-1.52-.04-3.85-.1-6.97-.07-3.12-.1-5.47-.1-7.07,0-11.23,.21-18.02,.62-20.38,.42-2.01,3.91-3.02,10.5-3.02,9.15,0,15.87,1.25,20.17,3.74,5.54,3.26,8.32,9.11,8.32,17.57,0,12.06-7.59,18.09-22.77,18.09h0Z"/>
      </g>
      <g>
        <path d="M813.29,191.97c-12.04,0-16.74-.42-18.56-.78-.77-.16-1.67-.5-2.12-2.42-3.56-15.07-5.29-17.06-7.03-17.97l-.1-.05-.1-.04c-.95-.41-2.24-.98-29.06-.98-18.75,0-19.66,.75-20.72,1.62l-.08,.06-.07,.07c-1.2,1.13-2.71,3.51-4.82,12.63-1.28,5.61-2.47,6.92-2.73,7.15-1.31,.27-6.14,.71-22.84,.71-7.91,0-11.26-.59-12.62-.99,1.15-3.99,5.97-18.17,23.02-64.42,17.15-46.42,26.21-71.25,27.7-75.92,.31-.99,.58-1.55,.75-1.85,1.77,.04,4.36,.21,7.72,.5,3.97,.35,7.01,.53,9.05,.53s4.72-.12,8.46-.37c3.41-.23,6.01-.35,7.76-.36,.17,.14,.58,.58,1.14,1.74,3.33,7.14,13.31,32.26,29.63,74.62,19,49.43,23.58,62.61,24.41,65.7-.08,.03-.17,.06-.28,.09-.99,.26-4.76,.72-18.53,.72Zm-54.48-96.43c-1.52,3.19-3.98,9.79-7.51,20.18-5.09,14.7-5.78,18.35-5.78,19.99,0,4.77,6.64,5,9.14,5.08,2.12,.14,5.66,.21,10.7,.21,4.58,0,9.01-.42,10.34-3.46,.32-.8,.46-1.64,.46-2.66,0-1.81-.56-5.69-4.92-19.8-3.2-10.25-5.52-16.68-7.07-19.64l-2.79-5.3-2.58,5.41Z"/>
        <path class="cls-1" d="M745.92,51.87c1.48,.08,3.3,.22,5.45,.41,4.11,.36,7.16,.54,9.31,.54,2.03,0,4.87-.12,8.67-.38,2.43-.16,4.43-.27,5.99-.32,3.35,7.2,13.29,32.24,29.54,74.4,15.21,39.56,21.11,55.71,23.27,62.12-2.48,.16-6.93,.32-14.87,.32-11.68,0-16.07-.4-17.7-.67-.02-.06-.04-.13-.06-.22-3.56-15.08-5.52-18.34-8.55-19.94l-.2-.1-.2-.09c-1.57-.69-2.81-1.23-30.26-1.23-19.02,0-20.68,.7-22.62,2.29l-.16,.13-.15,.14c-1.86,1.75-3.53,4.82-5.69,14.16-.63,2.76-1.2,4.26-1.56,5.03-2.16,.21-7.59,.5-21.08,.5-4.13,0-6.9-.16-8.73-.35,2.18-6.65,7.86-22.78,21.95-61.02,16.8-45.46,25.85-70.26,27.64-75.73m8.54,91.91c2.29,.14,5.85,.21,10.9,.21,3.77,0,10.78,0,13.09-5.26l.04-.09,.04-.09c.43-1.07,.64-2.28,.64-3.68,0-2.14-.6-6.27-5.06-20.71-4.33-13.88-6.23-18.13-7.28-20.13l-5.57-10.61-5.16,10.81c-1.57,3.3-4.07,10-7.64,20.48-5.49,15.84-5.94,19.14-5.94,20.99,0,1.23,.41,5.4,5.66,7.15,1.61,.54,3.61,.83,6.28,.93m-11.25-98c-1.11,0-2.08,1.32-2.91,3.95-1.46,4.57-10.67,29.84-27.65,75.79-15.66,42.49-23.5,64.63-23.5,66.43,0,2.01,5.3,3.01,15.91,3.01,13.45,0,21.35-.28,23.7-.83,1.87-.48,3.46-3.6,4.78-9.36,1.46-6.31,2.77-10.01,3.95-11.12,.76-.62,7.03-.94,18.82-.94,17.47,0,26.75,.24,27.86,.73,1.32,.69,3.15,6.03,5.51,16.01,.62,2.64,2.11,4.19,4.47,4.68,2.84,.55,9.22,.83,19.13,.83,10.81,0,17.26-.28,19.34-.83,1.73-.48,2.6-1.35,2.6-2.6,0-1.87-8.25-24.26-24.74-67.16-16.43-42.62-26.34-67.58-29.73-74.85-1.11-2.29-2.32-3.43-3.64-3.43-1.8,0-4.52,.12-8.16,.36-3.64,.24-6.39,.36-8.27,.36s-4.87-.17-8.78-.52c-3.92-.35-6.81-.52-8.68-.52h0Zm22.14,92.22c-4.92,0-8.46-.07-10.6-.21-4.16-.14-6.24-.83-6.24-2.08,0-1.87,1.87-8.21,5.61-19.03,3.47-10.19,5.93-16.81,7.38-19.86,1.46,2.77,3.74,9.15,6.86,19.13,3.19,10.33,4.78,16.63,4.78,18.92,0,.62-.07,1.11-.21,1.46-.49,1.11-3.01,1.66-7.59,1.66h0Z"/>
      </g>
      <g>
        <path d="M892.72,191.97c-8.74,0-14.92-.27-18.36-.8-.17-.03-.29-.07-.36-.1,0-.04,0-.09,0-.16,0-8.13,.35-20.47,1.04-36.68,.69-16.34,1.04-28.77,1.04-36.93,0-5.45-.27-17.32-.83-36.27l-.1-3.22-3.2,.32c-12.79,1.28-23.29,1.97-31.24,2.05,.2-1.1,.53-2.8,1.1-5.39,1.51-6.62,1.82-8.35,1.91-9.08v-.1s.02-.1,.02-.1c.2-3.21,.45-6.47,.72-9.71,.25-2.68,.55-4.16,.78-4.95,11.3,1.45,28.12,2.18,49.98,2.18,6.3,0,17.99-.67,34.75-1.98,5.64-.43,11.64-.89,13.19-1.01-.02,1.76-.08,4.09-.2,6.94-.14,3.68-.21,6.34-.21,7.92,0,1.89,.23,4.52,.7,8.04,.35,2.62,.56,4.71,.63,6.21-3.5-.07-13.71-.59-30.39-1.54l-3.1-.18-.07,3.1c-.42,17.48-.62,29.85-.62,36.77,0,8.2,.33,20.66,.99,37.03,.65,16.23,.98,28.56,.99,36.67-.31,.04-.7,.1-1.2,.16-4.05,.54-10.08,.81-17.94,.81Z"/>
        <path class="cls-1" d="M940.09,53.29c-.03,1.08-.08,2.28-.13,3.59-.14,3.71-.21,6.41-.21,8.02,0,2.03,.24,4.79,.73,8.44,.14,1.03,.25,1.92,.33,2.69-4.24-.18-12.22-.58-26.95-1.42l-6.19-.35-.15,6.2c-.41,17.51-.62,29.9-.62,36.84,0,8.23,.33,20.73,.99,37.15,.58,14.5,.91,25.88,.97,33.9-3.85,.41-9.26,.62-16.13,.62-8.08,0-12.88-.24-15.72-.5,.06-8.04,.4-19.49,1.02-34.1,.69-16.39,1.04-28.86,1.04-37.06,0-5.49-.27-17.39-.83-36.36l-.19-6.43-6.4,.64c-10.8,1.08-19.95,1.74-27.27,1.96,.11-.5,.22-1.05,.36-1.65,1.52-6.67,1.85-8.5,1.96-9.35l.03-.21v-.21c.22-3.19,.46-6.44,.73-9.6,.07-.75,.14-1.39,.22-1.94,11.32,1.24,27.3,1.87,47.56,1.87,6.46,0,17.91-.65,34.98-1.99,3.68-.28,7.31-.56,9.89-.76m3.27-6.26c-.07,0-4.61,.35-13.62,1.04-16.77,1.32-28.28,1.97-34.52,1.97-21.97,0-38.57-.73-49.8-2.18-.83-.07-1.32-.1-1.46-.1-1.18,0-2.01,2.6-2.49,7.8-.28,3.26-.52,6.52-.73,9.77-.14,1.04-.76,3.99-1.87,8.84-.97,4.44-1.46,7.1-1.46,8,0,.69,.55,1.04,1.66,1.04,8.25,0,19.3-.69,33.16-2.08,.55,18.71,.83,30.77,.83,36.18,0,8.18-.35,20.45-1.04,36.8-.69,16.36-1.04,28.63-1.04,36.8,0,1.8,.97,2.88,2.91,3.22,3.6,.55,9.88,.83,18.82,.83,8.04,0,14.14-.28,18.3-.83,1.73-.21,2.7-.38,2.91-.52,.62-.35,.94-1.18,.94-2.5,0-8.18-.33-20.48-.99-36.91s-.99-28.73-.99-36.91c0-6.93,.21-19.16,.62-36.7,18.23,1.04,28.66,1.56,31.29,1.56,1.52,0,2.29-.69,2.29-2.08,0-1.66-.23-4.18-.68-7.54-.45-3.36-.67-5.91-.67-7.64,0-1.52,.07-4.12,.21-7.8,.14-3.33,.21-5.93,.21-7.8-.07-1.18-.21-1.85-.42-2.03-.21-.17-1.01-.26-2.39-.26h0Z"/>
      </g>
      <g>
        <path d="M1028.5,194.98c-20.46,0-37.67-7.24-51.15-21.52-13.25-13.98-19.97-31.51-19.97-52.11s6.72-38.26,19.98-52.31c13.49-14.35,30.7-21.62,51.15-21.62s37.49,7.27,51.05,21.62c13.32,14.18,20.08,31.78,20.08,52.31s-6.69,38.33-19.87,52.31c-13.41,14.14-30.66,21.31-51.26,21.31Zm0-114.78c-10.64,0-19.77,4.34-27.12,12.9-7.03,8.14-10.6,17.65-10.6,28.26,0,11.3,3.36,20.88,9.99,28.48,7.08,8.07,16.41,12.15,27.73,12.15,10.63,0,19.78-4.3,27.21-12.77,6.98-8.02,10.52-17.46,10.52-28.07s-3.43-20.67-10.19-28.47c-7.15-8.28-16.41-12.47-27.53-12.47Z"/>
        <path class="cls-1" d="M1028.5,50.43c19.73,0,35.72,6.76,48.86,20.67,12.97,13.81,19.27,30.25,19.27,50.26s-6.23,36.66-19.04,50.24c-13.01,13.71-29.06,20.38-49.09,20.38s-35.89-6.73-48.98-20.58c-12.88-13.59-19.15-29.96-19.15-50.04s6.27-36.59,19.17-50.26c13.08-13.91,29.09-20.67,48.96-20.67m0,114.57c11.53,0,21.45-4.64,29.48-13.81,7.46-8.58,11.25-18.68,11.25-30.03s-3.68-22.07-10.92-30.43c-7.75-8.97-17.77-13.51-29.8-13.51s-21.45,4.69-29.39,13.93c-7.52,8.71-11.34,18.88-11.34,30.22,0,12.05,3.61,22.3,10.74,30.47,7.67,8.74,17.76,13.17,29.98,13.17m0-120.57c-21.42,0-39.19,7.52-53.33,22.56-13.86,14.69-20.79,32.82-20.79,54.37s6.93,39.54,20.79,54.17c14.14,14.97,31.92,22.46,53.33,22.46s39.37-7.41,53.44-22.25c13.79-14.62,20.69-32.75,20.69-54.37s-6.97-39.54-20.9-54.37c-14.21-15.04-31.95-22.56-53.23-22.56h0Zm0,114.57c-10.47,0-18.96-3.71-25.47-11.12-6.17-7.07-9.25-15.91-9.25-26.51,0-9.91,3.29-18.68,9.88-26.3,6.79-7.9,15.07-11.85,24.85-11.85,10.26,0,18.68,3.81,25.26,11.44,6.31,7.28,9.46,16.11,9.46,26.51s-3.26,18.61-9.77,26.1c-6.86,7.83-15.18,11.75-24.95,11.75h0Z"/>
      </g>
      <g>
        <path d="M1220.1,191.76c-8.91,0-15.01-.2-18.13-.6-.65-.09-1.08-.16-1.37-.21-.08-.14-.18-.33-.31-.6-1.04-2.7-2.55-6.68-4.53-11.93-2.71-6.96-6.99-17.3-12.73-30.79-2.54-5.5-16.3-6.09-22.1-6.09-4.56,0-4.56,6.03-4.56,8.3,0,4.8,.44,12,1.31,21.38,.81,8.72,1.24,15.46,1.28,20.05l-1.06,.08c-4.01,.27-10.38,.41-18.92,.41-12.67,0-16.26-.35-17.27-.56-.34-.07-.53-.15-.62-.2,0-.02,0-.05,0-.09,0-7.51,.37-19.08,1.09-34.38,.73-15.38,1.1-27.08,1.1-34.76,0-29.23-.67-52.4-1.99-68.86l-.03-.48c.19-.06,.44-.12,.76-.18,1.43-.26,8.02-.69,31.28-1.2,12.78-.28,23.08-.42,30.6-.42,15.09,0,27.51,3.41,36.93,10.15,10.56,7.52,15.69,18.11,15.69,32.39,0,9.62-1.37,17.33-4.07,22.92-2.68,5.55-7.79,11.08-15.17,16.45-1.82,1.26-4.94,3.43,9.35,32.95,7.75,16.01,10.69,22.87,11.78,25.8-2.37,.23-7.45,.46-18.34,.46Zm-50.21-116.23c-5.74,0-12.45,.61-13.44,5.41-.3,1.71-.69,5.65-.69,20.98,0,1.67,.04,4.07,.1,7.14,.07,3.18,.1,5.44,.1,6.9,0,3.09,3.53,3.64,5.87,4,4.37,.65,9,.97,13.77,.97,21.3,0,25.77-11.47,25.77-21.09s-3.3-16.33-9.8-20.16c-4.82-2.8-11.91-4.16-21.69-4.16Z"/>
        <path class="cls-1" d="M1183.92,53.65c14.45,0,26.29,3.23,35.19,9.6,9.71,6.91,14.43,16.7,14.43,29.94,0,9.16-1.27,16.43-3.77,21.61-2.46,5.09-7.23,10.23-14.19,15.29-4.11,2.89-5.86,7.31,8.37,36.71,5.45,11.27,8.47,17.88,10.13,21.75-2.89,.11-7.29,.2-13.98,.2-10.37,0-15.18-.28-17.4-.53-1.02-2.67-2.4-6.31-4.12-10.86v-.03s-.03-.03-.03-.03c-2.7-6.93-6.99-17.31-12.75-30.84l-.04-.08-.04-.08c-1.95-4.21-7.16-5.73-10.92-6.51-3.88-.8-8.8-1.24-13.87-1.24-2.55,0-5.7,1.48-6.93,5.63-.43,1.47-.63,3.27-.63,5.67,0,4.96,.43,12.04,1.33,21.66,.65,6.97,1.05,12.65,1.2,16.96-3.96,.2-9.63,.3-16.9,.3-8.61,0-12.83-.16-14.88-.31,.07-7.45,.43-18.12,1.07-31.77,.73-15.43,1.1-27.18,1.1-34.9,0-27.96-.61-50.4-1.81-66.75,3.07-.22,10.58-.56,28.9-.96,12.76-.28,23.04-.41,30.54-.41m-8.32,70.28c25.03,0,28.77-15.09,28.77-24.09,0-13.32-6.13-19.72-11.31-22.76-5.28-3.06-12.86-4.55-23.18-4.55-4.42,0-14.76,0-16.38,7.8l-.02,.09-.02,.09c-.33,1.89-.71,6.03-.71,21.42,0,1.68,.04,4.11,.1,7.2,.07,3.18,.1,5.41,.1,6.83,0,1.1,.36,4.79,5.04,6.25,.86,.27,1.93,.5,3.41,.73,4.5,.66,9.27,1,14.18,1m8.32-76.28c-7.62,0-17.85,.14-30.67,.42-18.92,.42-29.51,.83-31.76,1.25-2.25,.42-3.34,1.21-3.27,2.39l.1,1.46c1.32,16.43,1.98,39.3,1.98,68.62,0,7.69-.37,19.23-1.09,34.62-.73,15.39-1.09,26.89-1.09,34.52,0,1.73,1,2.81,3.02,3.22,2.01,.42,7.97,.62,17.88,.62,8.66,0,15.04-.14,19.13-.42,.97-.07,1.94-.14,2.91-.21,.62-.21,.94-.9,.94-2.08,0-4.71-.43-11.75-1.3-21.1-.87-9.36-1.3-16.39-1.3-21.1,0-3.54,.52-5.3,1.56-5.3,9.22,0,18.09,1.56,19.34,4.26,5.75,13.52,9.98,23.74,12.68,30.67,2.01,5.34,3.54,9.36,4.58,12.06,.55,1.18,1.04,1.87,1.46,2.08,.21,.14,1.07,.31,2.6,.52,3.26,.42,9.42,.62,18.51,.62,10.6,0,17.22-.21,19.86-.62,1.39-.21,2.08-.55,2.08-1.04,0-1.8-4.23-11.44-12.68-28.9-8.46-17.47-11.89-28.1-10.29-29.21,7.83-5.68,13.2-11.54,16.11-17.57,2.91-6.03,4.37-14.1,4.37-24.22,0-15.18-5.65-26.79-16.95-34.83-9.98-7.14-22.87-10.71-38.67-10.71h0Zm-8.32,70.28c-4.64,0-9.08-.31-13.31-.94-2.22-.34-3.33-.69-3.33-1.04,0-1.52-.04-3.85-.1-6.97-.07-3.12-.1-5.47-.1-7.07,0-11.23,.21-18.02,.62-20.38,.42-2.01,3.92-3.02,10.5-3.02,9.15,0,15.87,1.25,20.17,3.74,5.54,3.26,8.32,9.11,8.32,17.57,0,12.06-7.59,18.09-22.77,18.09h0Z"/>
      </g>
      <g>
        <path d="M1275.51,191.97c-12.3,0-16.98-.42-18.75-.77-.33-.07-.51-.15-.6-.19h0c.05-.36,.07-.68,.08-.94,.04-.77,.11-1.93,.18-3.48,.16-3.07,.38-7.68,.67-13.83,1.24-27.98,1.87-46.63,1.87-55.45,0-7.37-.25-18.63-.73-33.47-.47-14.23-.71-25.18-.72-32.56,2.1,.02,5.11,.12,8.97,.3,4.43,.21,7.65,.32,9.86,.32s5.43-.11,9.66-.32c4.1-.2,7.25-.31,9.36-.31h.01c-.02,7.32-.42,18.25-1.19,32.5-.8,14.82-1.2,26.1-1.2,33.53,0,8.17,.21,20.61,.62,36.98,.41,16.26,.62,28.62,.62,36.74-.27,.04-.61,.08-1.01,.13-4.37,.54-10.33,.81-17.72,.81Z"/>
        <path class="cls-1" d="M1292.36,54.32c-.11,7.13-.5,16.95-1.16,29.29-.8,14.87-1.2,26.21-1.2,33.69,0,8.19,.21,20.66,.63,37.06,.37,14.55,.57,25.96,.61,34-4.07,.4-9.34,.61-15.72,.61-9.06,0-13.76-.23-16.18-.45,.03-.52,.06-1.11,.09-1.78,.16-3.08,.38-7.69,.67-13.86,1.25-28.03,1.88-46.73,1.88-55.57,0-7.41-.25-18.7-.73-33.57-.4-12.34-.64-22.2-.71-29.4,1.64,.05,3.58,.13,5.81,.24,4.48,.22,7.75,.32,10.01,.32s5.47-.1,9.81-.32c2.41-.12,4.48-.2,6.2-.25m3.01-6.05c-2.15,0-5.32,.1-9.51,.31-4.19,.21-7.37,.31-9.51,.31s-5.39-.1-9.72-.31c-4.33-.21-7.57-.31-9.72-.31-1.6,0-2.39,.76-2.39,2.29,0,7.42,.24,18.54,.73,33.37,.48,14.83,.73,25.96,.73,33.37,0,8.8-.62,27.24-1.87,55.31-.58,12.28-.89,18.43-.93,18.43,0,0,0-.02,0-.07,.02,1.7,1.03,2.75,3.02,3.16,2.77,.55,9.22,.83,19.34,.83,7.55,0,13.58-.28,18.09-.83,1.66-.21,2.56-.35,2.7-.42,.62-.35,.94-1.21,.94-2.6,0-8.18-.21-20.48-.62-36.91s-.62-28.73-.62-36.91c0-7.42,.4-18.54,1.2-33.37,.8-14.83,1.2-25.96,1.2-33.37,0-1.52-1.01-2.29-3.02-2.29h0Zm-42.21,142.64s0,.04,0,.06c0-.02,0-.04,0-.06h0Z"/>
      </g>
    </g>
  </g>
</svg>