<?xml version="1.0" encoding="UTF-8"?>
<svg id="Layer_2" data-name="Layer 2" xmlns="http://www.w3.org/2000/svg" viewBox="0 0 1716.18 242.41">
  <defs>
    <style>
      .cls-1 {
        fill: #4169e1;
      }

      .cls-2 {
        fill: #32cd32;
      }
    </style>
  </defs>
  <g id="Layer_3" data-name="Layer 3">
    <g>
      <g>
        <path class="cls-1" d="M1667.02,144.86l-35.66-61.76c-2.78-4.82,.7-10.84,6.26-10.84h4.34c3.99,0,7.23-3.24,7.23-7.23V7.23c0-3.99,3.24-7.23,7.23-7.23h33.72c3.99,0,7.23,3.24,7.23,7.23v57.81c0,3.99,3.24,7.23,7.23,7.23h4.34c5.56,0,9.04,6.02,6.26,10.84l-35.66,61.76c-2.78,4.82-9.74,4.82-12.52,0Z"/>
        <circle class="cls-1" cx="1673.28" cy="203.48" r="38.93"/>
      </g>
      <g>
        <path class="cls-2" d="M1462.37,142.36c0,18.25-2.18,30.71-6.55,37.37-8.02,12.17-28.03,18.25-60.03,18.25-14.46,0-25.59-1.11-33.4-3.33-12.46-3.58-20.55-10.42-24.27-20.51-1.86-4.94-2.79-13.74-2.79-26.42,0-2.94,.11-7.3,.32-13.1,.21-5.8,.32-10.13,.32-12.99,0-8.3-.39-20.76-1.18-37.37-.79-16.61-1.18-29.03-1.18-37.26,0-1.72,.75-2.58,2.25-2.58,4.37,0,10.97,.18,19.81,.54s15.44,.54,19.81,.54c1.79,0,2.68,.79,2.68,2.36,0,9.45-.3,23.61-.91,42.47s-.91,33.02-.91,42.47c0,11.24,1.18,18.83,3.54,22.76,3.15,5.37,9.74,8.05,19.76,8.05,14.68,0,22.01-7.12,22.01-21.37,0-10.38-.25-25.95-.75-46.71-.5-20.76-.75-36.33-.75-46.71,0-2.22,.89-3.33,2.68-3.33,4.22,0,10.59-.18,19.11-.54s14.89-.54,19.11-.54c2.08,0,3.11,.86,3.11,2.58,0,8.23-.34,20.65-1.02,37.26-.68,16.61-1.02,29.06-1.02,37.37,0,2.29,.04,5.74,.11,10.36,.07,4.62,.11,8.07,.11,10.36Z"/>
        <path class="cls-2" d="M1611.99,101.88c0,17.32-4.55,31.35-13.64,42.09-9.74,11.38-23.16,17.07-40.27,17.07-2.86,0-7.18-.16-12.94-.48-5.76-.32-10.08-.48-12.94-.48-3.08,0-4.62,1.32-4.62,3.97,0,3.29,.32,8.2,.97,14.71,.64,6.51,.97,11.38,.97,14.6,0,1.65-.75,2.47-2.25,2.47-4.37,0-10.92-.13-19.65-.38-8.73-.25-15.28-.38-19.65-.38-2.08,0-3.11-1.04-3.11-3.11,0-7.95,.13-19.88,.38-35.81s.38-27.87,.38-35.81c0-22.48-.97-46.1-2.9-70.87l-.11-1.5c-.14-1.36,.93-2.18,3.22-2.47,5.58-.72,17.9-1.07,36.94-1.07,11.24,0,22.01,.14,32.32,.43,16.97,.5,30.64,5.83,41.02,16,10.59,10.45,15.89,24.12,15.89,41.02Zm-42.84,1.72c0-16.68-8.13-25.02-24.38-25.02-11.45,0-17.47,.64-18.04,1.93-.5,.93-.75,9.2-.75,24.8,0,2.22,.09,5.49,.27,9.83,.18,4.33,.27,7.61,.27,9.83,0,1.43,6.44,2.15,19.33,2.15,15.53,0,23.3-7.84,23.3-23.52Z"/>
      </g>
      <g>
        <path d="M94.81,192.9c-5.96,0-13.72-.14-23.29-.42-12.48-.28-20.24-.45-23.29-.52l-31.08-.42c-3.12,.07-7.59-.07-13.41-.42-2.01-.35-3.02-1.42-3.02-3.22,0-7.55,.12-18.87,.36-33.95,.24-15.07,.37-26.39,.37-33.94,0-8.04-.24-20.08-.73-36.13-.49-16.04-.73-28.09-.73-36.13,0-1.52,1.04-2.29,3.12-2.29s5.18,.1,9.3,.31c4.12,.21,7.19,.31,9.2,.31,2.29,0,5.68-.12,10.19-.36,4.51-.24,7.9-.37,10.19-.37,1.04,0,1.52,.66,1.46,1.98l-.1,1.35c-.83,13.03-1.77,32.61-2.81,58.74l-.1,27.45c0,8.87,.03,15.35,.1,19.44,.07,.83,.14,1.66,.21,2.49,.07,.83,.59,1.35,1.56,1.56h2.7c6.24,0,15.58-.33,28.02-.99,12.44-.66,21.78-.99,28.02-.99,1.87,0,2.81,.8,2.81,2.39,0,11.85-.87,22.08-2.6,30.67-.35,1.8-1.08,2.87-2.18,3.22-.35,.14-1.77,.21-4.26,.21Z"/>
        <path d="M252.84,188.54c0,1.25-.87,2.11-2.6,2.6-2.08,.55-8.53,.83-19.34,.83-9.91,0-16.29-.28-19.13-.83-2.36-.48-3.85-2.04-4.47-4.68-2.36-9.98-4.19-15.32-5.51-16.01-1.11-.48-10.4-.73-27.86-.73-11.78,0-18.06,.31-18.82,.94-1.18,1.11-2.5,4.82-3.95,11.12-1.32,5.75-2.91,8.87-4.78,9.36-2.36,.55-10.26,.83-23.7,.83-10.6,0-15.91-1-15.91-3.01,0-1.8,7.83-23.95,23.5-66.43,16.98-45.95,26.2-71.22,27.65-75.79,.83-2.63,1.8-3.95,2.91-3.95,1.87,0,4.76,.17,8.68,.52,3.91,.35,6.84,.52,8.78,.52s4.63-.12,8.27-.36c3.64-.24,6.36-.36,8.16-.36,1.32,0,2.53,1.14,3.64,3.43,3.4,7.28,13.31,32.23,29.73,74.85,16.49,42.9,24.74,65.29,24.74,67.16Zm-73.71-94.71c-1.46,3.05-3.92,9.67-7.38,19.86-3.74,10.81-5.61,17.15-5.61,19.03,0,1.25,2.08,1.94,6.24,2.08,2.15,.14,5.68,.21,10.6,.21,4.57,0,7.1-.55,7.59-1.66,.14-.35,.21-.83,.21-1.46,0-2.29-1.6-8.59-4.78-18.92-3.12-9.98-5.41-16.36-6.86-19.13Z"/>
        <path d="M386.33,146.22c0,12.75-3.99,23.32-11.96,31.71-9.08,9.64-25.02,14.45-47.82,14.45-1.73,0-4.23-.04-7.48-.1h-7.38c-25.57,0-40.79-.52-45.64-1.56-2.01-.42-3.02-1.49-3.02-3.22,0-7.42,.43-18.64,1.3-33.68,.87-15.04,1.3-26.3,1.3-33.79,0-8.04-.42-23.15-1.25-45.33-.21-5.68-.59-14.21-1.14-25.57l-.1-1.46c-.07-1.32,1.02-2.11,3.27-2.39,2.25-.28,10.27-.42,24.07-.42,22.11,0,35.04,.07,38.78,.21,17.05,.62,29.63,3.4,37.74,8.32,10.74,6.59,16.11,17.71,16.11,33.37,0,4.09-1.25,8.42-3.74,13-1.8,3.26-4.16,6.52-7.07,9.77-2.57,2.84-3.85,4.16-3.85,3.95,0,.49,.9,1.25,2.7,2.29,4.85,2.77,8.66,7.17,11.44,13.2,2.5,5.41,3.74,11.16,3.74,17.26Zm-44.7-58.53c0-5.96-2.98-9.91-8.94-11.85-3.33-1.04-8.8-1.56-16.43-1.56s-11.23,.56-11.23,1.66c0,1.32-.12,3.31-.36,5.98-.24,2.67-.36,4.66-.36,5.98,0,6.93,.59,10.81,1.77,11.64,.76,.62,5.16,.94,13.2,.94,14.9,0,22.35-4.26,22.35-12.79Zm3.12,58.12c0-6.24-2.6-10.46-7.8-12.68-3.33-1.39-8.73-2.08-16.22-2.08-8.94,0-13.79,.33-14.55,.99-.76,.66-1.14,4.9-1.14,12.74s.45,12.7,1.35,13.57c.9,.87,5.89,1.3,14.97,1.3,7.48,0,12.75-.59,15.8-1.77,5.06-2.01,7.59-6.03,7.59-12.06Z"/>
        <path d="M543.94,118.36c0,21.63-6.9,39.75-20.69,54.37-14.07,14.83-31.88,22.25-53.44,22.25s-39.19-7.48-53.33-22.46c-13.86-14.62-20.79-32.68-20.79-54.17s6.93-39.68,20.79-54.37c14.14-15.04,31.92-22.56,53.33-22.56s39.02,7.52,53.23,22.56c13.93,14.83,20.9,32.96,20.9,54.37Zm-39.4-.21c0-10.4-3.16-19.23-9.46-26.51-6.59-7.62-15.01-11.44-25.26-11.44s-18.06,3.95-24.85,11.85c-6.59,7.62-9.88,16.39-9.88,26.3,0,10.6,3.08,19.44,9.25,26.51,6.51,7.42,15,11.12,25.47,11.12,9.77,0,18.09-3.92,24.95-11.75,6.51-7.49,9.77-16.18,9.77-26.1Z"/>
        <path d="M683.35,190.1c0,.49-.69,.83-2.08,1.04-2.63,.42-9.25,.62-19.86,.62-9.08,0-15.25-.21-18.51-.62-1.53-.21-2.39-.38-2.6-.52-.42-.21-.9-.9-1.46-2.08-1.04-2.7-2.57-6.72-4.57-12.06-2.7-6.93-6.93-17.16-12.68-30.67-1.25-2.7-4.12-4.19-8.63-4.47,2.08,.14-1.49,.21-10.71,.21-1.04,0-1.56,1.77-1.56,5.3,0,4.71,.43,11.75,1.3,21.1,.87,9.36,1.3,16.39,1.3,21.1,0,1.18-.31,1.87-.94,2.08-.97,.07-1.94,.14-2.91,.21-4.09,.28-10.47,.42-19.13,.42-9.91,0-15.87-.21-17.88-.62-2.01-.42-3.02-1.49-3.02-3.22,0-7.62,.37-19.13,1.09-34.52,.73-15.39,1.09-26.93,1.09-34.62,0-29.32-.66-52.19-1.98-68.62l-.1-1.46c-.07-1.18,1.02-1.97,3.27-2.39,2.25-.42,12.84-.83,31.76-1.25,12.82-.28,23.04-.42,30.67-.42,15.8,0,28.69,3.57,38.67,10.71,11.3,8.04,16.95,19.65,16.95,34.83,0,10.12-1.46,18.19-4.37,24.22-2.91,6.03-8.28,11.89-16.11,17.57-1.6,1.11-2.39,2.15-2.39,3.12,0-.07,4.23,8.63,12.68,26.1,8.46,17.47,12.68,27.1,12.68,28.9Zm-43.66-93.26c0-8.45-2.77-14.31-8.32-17.57-4.3-2.5-11.02-3.74-20.17-3.74-6.59,0-10.08,1.01-10.5,3.02-.42,2.36-.62,9.15-.62,20.38,0,1.6,.03,3.95,.1,7.07,.07,3.12,.1,5.44,.1,6.97,0,.35,1.11,.69,3.33,1.04,4.23,.62,8.66,.94,13.31,.94,15.18,0,22.77-6.03,22.77-18.09Z"/>
        <path d="M832.23,188.54c0,1.25-.87,2.11-2.6,2.6-2.08,.55-8.53,.83-19.34,.83-9.91,0-16.29-.28-19.13-.83-2.36-.48-3.85-2.04-4.47-4.68-2.36-9.98-4.19-15.32-5.51-16.01-1.11-.48-10.4-.73-27.86-.73-11.78,0-18.06,.31-18.82,.94-1.18,1.11-2.5,4.82-3.95,11.12-1.32,5.75-2.91,8.87-4.78,9.36-2.36,.55-10.26,.83-23.7,.83-10.6,0-15.91-1-15.91-3.01,0-1.8,7.83-23.95,23.5-66.43,16.98-45.95,26.2-71.22,27.65-75.79,.83-2.63,1.8-3.95,2.91-3.95,1.87,0,4.76,.17,8.68,.52,3.91,.35,6.84,.52,8.78,.52s4.63-.12,8.27-.36c3.64-.24,6.36-.36,8.16-.36,1.32,0,2.53,1.14,3.64,3.43,3.4,7.28,13.31,32.23,29.73,74.85,16.49,42.9,24.74,65.29,24.74,67.16Zm-73.71-94.71c-1.46,3.05-3.92,9.67-7.38,19.86-3.74,10.81-5.61,17.15-5.61,19.03,0,1.25,2.08,1.94,6.24,2.08,2.15,.14,5.68,.21,10.6,.21,4.57,0,7.1-.55,7.59-1.66,.14-.35,.21-.83,.21-1.46,0-2.29-1.6-8.59-4.78-18.92-3.12-9.98-5.41-16.36-6.86-19.13Z"/>
        <path d="M944.09,77.09c0,1.39-.76,2.08-2.29,2.08-2.63,0-13.06-.52-31.29-1.56-.42,17.54-.62,29.77-.62,36.7,0,8.18,.33,20.48,.99,36.91,.66,16.43,.99,28.73,.99,36.91,0,1.32-.31,2.15-.94,2.5-.21,.14-1.18,.31-2.91,.52-4.16,.55-10.26,.83-18.3,.83-8.94,0-15.21-.28-18.82-.83-1.94-.35-2.91-1.42-2.91-3.22,0-8.18,.34-20.45,1.04-36.8,.69-16.36,1.04-28.62,1.04-36.8,0-5.41-.28-17.47-.83-36.18-13.86,1.39-24.92,2.08-33.16,2.08-1.11,0-1.66-.35-1.66-1.04,0-.9,.48-3.57,1.46-8,1.11-4.85,1.73-7.8,1.87-8.84,.21-3.26,.45-6.51,.73-9.77,.48-5.2,1.31-7.8,2.49-7.8,.14,0,.62,.04,1.46,.1,11.23,1.46,27.83,2.18,49.8,2.18,6.24,0,17.74-.66,34.52-1.97,9.01-.69,13.55-1.04,13.62-1.04,1.39,0,2.18,.09,2.39,.26s.35,.85,.42,2.03c0,1.87-.07,4.47-.21,7.8-.14,3.67-.21,6.27-.21,7.8,0,1.73,.22,4.28,.67,7.64,.45,3.36,.68,5.87,.68,7.54Z"/>
        <path d="M1099.62,118.36c0,21.63-6.9,39.75-20.69,54.37-14.07,14.83-31.88,22.25-53.44,22.25s-39.19-7.48-53.33-22.46c-13.86-14.62-20.79-32.68-20.79-54.17s6.93-39.68,20.79-54.37c14.14-15.04,31.92-22.56,53.33-22.56s39.02,7.52,53.23,22.56c13.93,14.83,20.9,32.96,20.9,54.37Zm-39.4-.21c0-10.4-3.16-19.23-9.46-26.51-6.59-7.62-15.01-11.44-25.26-11.44s-18.06,3.95-24.85,11.85c-6.59,7.62-9.88,16.39-9.88,26.3,0,10.6,3.08,19.44,9.25,26.51,6.51,7.42,15,11.12,25.47,11.12,9.77,0,18.09-3.92,24.95-11.75,6.51-7.49,9.77-16.18,9.77-26.1Z"/>
        <path d="M1239.04,190.1c0,.49-.69,.83-2.08,1.04-2.63,.42-9.25,.62-19.86,.62-9.08,0-15.25-.21-18.51-.62-1.53-.21-2.39-.38-2.6-.52-.42-.21-.9-.9-1.46-2.08-1.04-2.7-2.57-6.72-4.57-12.06-2.7-6.93-6.93-17.16-12.68-30.67-1.25-2.7-4.12-4.19-8.63-4.47,2.08,.14-1.49,.21-10.71,.21-1.04,0-1.56,1.77-1.56,5.3,0,4.71,.43,11.75,1.3,21.1,.87,9.36,1.3,16.39,1.3,21.1,0,1.18-.31,1.87-.94,2.08-.97,.07-1.94,.14-2.91,.21-4.09,.28-10.47,.42-19.13,.42-9.91,0-15.87-.21-17.88-.62-2.01-.42-3.02-1.49-3.02-3.22,0-7.62,.37-19.13,1.09-34.52,.73-15.39,1.09-26.93,1.09-34.62,0-29.32-.66-52.19-1.98-68.62l-.1-1.46c-.07-1.18,1.02-1.97,3.27-2.39,2.25-.42,12.84-.83,31.76-1.25,12.82-.28,23.04-.42,30.67-.42,15.8,0,28.69,3.57,38.67,10.71,11.3,8.04,16.95,19.65,16.95,34.83,0,10.12-1.46,18.19-4.37,24.22-2.91,6.03-8.28,11.89-16.11,17.57-1.6,1.11-2.39,2.15-2.39,3.12,0-.07,4.23,8.63,12.68,26.1,8.46,17.47,12.68,27.1,12.68,28.9Zm-43.66-93.26c0-8.45-2.77-14.31-8.32-17.57-4.3-2.5-11.02-3.74-20.17-3.74-6.59,0-10.08,1.01-10.5,3.02-.42,2.36-.62,9.15-.62,20.38,0,1.6,.03,3.95,.1,7.07,.07,3.12,.1,5.44,.1,6.97,0,.35,1.11,.69,3.33,1.04,4.23,.62,8.66,.94,13.31,.94,15.18,0,22.77-6.03,22.77-18.09Z"/>
        <path d="M1293,114.31c0,8.18,.21,20.48,.62,36.91,.42,16.43,.62,28.73,.62,36.91,0,1.39-.31,2.25-.94,2.6-.14,.07-1.04,.21-2.7,.42-4.51,.55-10.54,.83-18.09,.83-10.12,0-16.57-.28-19.34-.83-2.01-.42-3.02-1.49-3.02-3.22,0,1.11,.31-4.99,.94-18.3,1.25-28.07,1.87-46.51,1.87-55.31,0-7.41-.24-18.54-.73-33.37-.49-14.83-.73-25.96-.73-33.37,0-1.52,.8-2.29,2.39-2.29,2.15,0,5.39,.1,9.72,.31,4.33,.21,7.57,.31,9.72,.31s5.32-.1,9.51-.31c4.19-.21,7.36-.31,9.51-.31,2.01,0,3.02,.76,3.02,2.29,0,7.42-.4,18.54-1.2,33.37-.8,14.83-1.2,25.96-1.2,33.37Z"/>
      </g>
    </g>
  </g>
</svg>